<?xml version="1.0" standalone="no"?>
<!DOCTYPE svg PUBLIC "-//W3C//DTD SVG 20010904//EN"
 "http://www.w3.org/TR/2001/REC-SVG-20010904/DTD/svg10.dtd">
<svg version="1.0" xmlns="http://www.w3.org/2000/svg"
 width="512.000000pt" height="512.000000pt" viewBox="0 0 512.000000 512.000000"
 preserveAspectRatio="xMidYMid meet">

<g transform="translate(0.000000,512.000000) scale(0.100000,-0.100000)"
fill="#000000" stroke="none">
<path d="M1 4953 c0 -107 3 -160 9 -146 5 12 18 26 29 32 13 7 178 11 495 11
461 0 477 -1 496 -20 11 -11 22 -31 26 -45 3 -14 12 -25 19 -25 7 0 24 -9 39
-21 41 -33 36 -84 -14 -142 l-40 -45 0 -342 c0 -348 -2 -369 -39 -397 -12 -9
-134 -12 -492 -13 -500 0 -492 -1 -517 45 -9 15 -11 -89 -12 -397 l0 -416 29
29 29 29 472 0 472 0 29 -29 c16 -16 29 -36 29 -44 0 -8 14 -20 30 -27 64 -27
68 -91 10 -154 l-40 -43 0 -352 0 -353 -29 -29 -29 -29 -472 0 -472 0 -29 29
-29 29 0 -416 c1 -308 3 -412 12 -397 25 46 17 45 517 45 358 -1 480 -4 492
-13 38 -29 39 -45 39 -512 0 -480 -2 -502 -45 -519 -9 -3 -229 -6 -489 -6
-497 0 -490 -1 -514 45 -9 15 -11 -21 -12 -147 l0 -168 2560 0 2560 0 0 388
c-1 296 -3 382 -12 367 -6 -11 -19 -25 -27 -32 -12 -10 -417 -12 -1817 -13
l-1801 0 -23 25 c-34 37 -33 90 4 121 l27 24 1797 0 c1397 -1 1801 -3 1813
-13 8 -7 21 -21 27 -32 9 -15 11 188 12 838 l0 858 -24 -28 -24 -28 -1791 -3
c-1967 -2 -1834 -7 -1861 58 -10 24 -10 36 0 60 27 65 -106 60 1861 58 l1791
-3 24 -28 24 -28 0 858 c-1 650 -3 853 -12 838 -6 -11 -19 -25 -27 -32 -12
-10 -416 -12 -1813 -13 l-1797 0 -27 24 c-37 31 -38 84 -4 121 l23 25 1802 0
c1426 0 1804 -3 1817 -12 8 -7 20 -22 26 -33 9 -15 11 81 12 368 l0 387 -2560
0 -2560 0 1 -167z m4203 -124 c26 -21 35 -65 20 -104 -18 -46 24 -45 -1399
-45 -1423 0 -1381 -1 -1399 45 -15 39 -6 83 20 104 l27 21 1352 0 1352 0 27
-21z m-1058 -883 c37 -31 38 -84 4 -121 l-23 -25 -832 0 -832 0 -23 25 c-34
37 -33 90 4 121 l27 24 824 0 824 0 27 -24z m1033 -867 c17 -6 36 -19 41 -29
17 -32 11 -82 -12 -107 l-21 -23 -1361 0 -1360 0 -23 22 c-23 22 -30 67 -17
103 18 45 -6 44 1395 45 943 0 1335 -3 1358 -11z m-1055 -883 c46 -19 64 -71
41 -116 -9 -17 -27 -35 -41 -40 -34 -13 -1624 -13 -1658 0 -14 5 -32 23 -41
40 -23 44 -5 97 39 116 47 20 1611 21 1660 0z m1081 -901 c31 -30 33 -83 6
-116 l-19 -24 -1367 0 -1367 0 -19 24 c-27 33 -25 86 6 116 l24 25 1356 0
1356 0 24 -25z m-1059 -879 c37 -31 38 -84 4 -121 l-23 -25 -832 0 -832 0 -23
25 c-34 37 -33 90 4 121 l27 24 824 0 824 0 27 -24z"/>
</g>
</svg>
